<mxfile host="app.diagrams.net" modified="2024-03-30T10:23:24.805Z" agent="Mozilla/5.0 (Windows NT 10.0; Win64; x64) AppleWebKit/537.36 (KHTML, like Gecko) Chrome/123.0.0.0 Safari/537.36" etag="XYdAE9ya8rpEBwzB2WWt" version="24.2.1" type="device">
  <diagram name="Page-1" id="gRgOFUXcLR0Mkpm6Kkpn">
    <mxGraphModel dx="1050" dy="522" grid="1" gridSize="10" guides="1" tooltips="1" connect="1" arrows="1" fold="1" page="1" pageScale="1" pageWidth="850" pageHeight="1100" math="0" shadow="0">
      <root>
        <mxCell id="0" />
        <mxCell id="1" parent="0" />
        <mxCell id="fc3toLSza51Pf3TuY-if-1" value="BigMak" style="rounded=0;whiteSpace=wrap;html=1;" vertex="1" parent="1">
          <mxGeometry x="350" y="30" width="120" height="60" as="geometry" />
        </mxCell>
        <mxCell id="fc3toLSza51Pf3TuY-if-2" value="Menu" style="rounded=0;whiteSpace=wrap;html=1;" vertex="1" parent="1">
          <mxGeometry x="160" y="180" width="120" height="60" as="geometry" />
        </mxCell>
        <mxCell id="fc3toLSza51Pf3TuY-if-3" value="Home" style="rounded=0;whiteSpace=wrap;html=1;" vertex="1" parent="1">
          <mxGeometry x="10" y="180" width="120" height="60" as="geometry" />
        </mxCell>
        <mxCell id="fc3toLSza51Pf3TuY-if-4" value="Order" style="rounded=0;whiteSpace=wrap;html=1;" vertex="1" parent="1">
          <mxGeometry x="320" y="180" width="120" height="60" as="geometry" />
        </mxCell>
        <mxCell id="fc3toLSza51Pf3TuY-if-5" value="Contact Us" style="rounded=0;whiteSpace=wrap;html=1;" vertex="1" parent="1">
          <mxGeometry x="480" y="180" width="120" height="60" as="geometry" />
        </mxCell>
        <mxCell id="fc3toLSza51Pf3TuY-if-6" value="About Us" style="rounded=0;whiteSpace=wrap;html=1;" vertex="1" parent="1">
          <mxGeometry x="640" y="180" width="120" height="60" as="geometry" />
        </mxCell>
        <mxCell id="fc3toLSza51Pf3TuY-if-7" value="Sign in" style="rounded=0;whiteSpace=wrap;html=1;" vertex="1" parent="1">
          <mxGeometry x="800" y="180" width="90" height="60" as="geometry" />
        </mxCell>
        <mxCell id="fc3toLSza51Pf3TuY-if-8" value="Foods" style="rounded=0;whiteSpace=wrap;html=1;" vertex="1" parent="1">
          <mxGeometry x="200" y="300" width="120" height="60" as="geometry" />
        </mxCell>
        <mxCell id="fc3toLSza51Pf3TuY-if-9" value="Desserts" style="rounded=0;whiteSpace=wrap;html=1;" vertex="1" parent="1">
          <mxGeometry x="200" y="380" width="120" height="60" as="geometry" />
        </mxCell>
        <mxCell id="fc3toLSza51Pf3TuY-if-10" value="Beverage" style="rounded=0;whiteSpace=wrap;html=1;" vertex="1" parent="1">
          <mxGeometry x="200" y="460" width="120" height="60" as="geometry" />
        </mxCell>
        <mxCell id="fc3toLSza51Pf3TuY-if-11" value="Specials" style="rounded=0;whiteSpace=wrap;html=1;" vertex="1" parent="1">
          <mxGeometry x="200" y="540" width="120" height="60" as="geometry" />
        </mxCell>
        <mxCell id="fc3toLSza51Pf3TuY-if-12" value="" style="endArrow=classic;html=1;rounded=0;exitX=0.5;exitY=1;exitDx=0;exitDy=0;" edge="1" parent="1" source="fc3toLSza51Pf3TuY-if-2">
          <mxGeometry width="50" height="50" relative="1" as="geometry">
            <mxPoint x="400" y="300" as="sourcePoint" />
            <mxPoint x="160" y="580" as="targetPoint" />
            <Array as="points">
              <mxPoint x="220" y="280" />
              <mxPoint x="160" y="280" />
            </Array>
          </mxGeometry>
        </mxCell>
        <mxCell id="fc3toLSza51Pf3TuY-if-13" value="" style="endArrow=none;html=1;rounded=0;entryX=0;entryY=0.5;entryDx=0;entryDy=0;" edge="1" parent="1" target="fc3toLSza51Pf3TuY-if-8">
          <mxGeometry width="50" height="50" relative="1" as="geometry">
            <mxPoint x="160" y="330" as="sourcePoint" />
            <mxPoint x="450" y="350" as="targetPoint" />
          </mxGeometry>
        </mxCell>
        <mxCell id="fc3toLSza51Pf3TuY-if-14" value="" style="endArrow=none;html=1;rounded=0;entryX=0;entryY=0.5;entryDx=0;entryDy=0;" edge="1" parent="1" target="fc3toLSza51Pf3TuY-if-9">
          <mxGeometry width="50" height="50" relative="1" as="geometry">
            <mxPoint x="160" y="410" as="sourcePoint" />
            <mxPoint x="450" y="350" as="targetPoint" />
          </mxGeometry>
        </mxCell>
        <mxCell id="fc3toLSza51Pf3TuY-if-15" value="" style="endArrow=none;html=1;rounded=0;entryX=0;entryY=0.5;entryDx=0;entryDy=0;" edge="1" parent="1" target="fc3toLSza51Pf3TuY-if-10">
          <mxGeometry width="50" height="50" relative="1" as="geometry">
            <mxPoint x="160" y="490" as="sourcePoint" />
            <mxPoint x="450" y="350" as="targetPoint" />
          </mxGeometry>
        </mxCell>
        <mxCell id="fc3toLSza51Pf3TuY-if-16" value="" style="endArrow=none;html=1;rounded=0;" edge="1" parent="1" target="fc3toLSza51Pf3TuY-if-11">
          <mxGeometry width="50" height="50" relative="1" as="geometry">
            <mxPoint x="160" y="570" as="sourcePoint" />
            <mxPoint x="450" y="350" as="targetPoint" />
          </mxGeometry>
        </mxCell>
        <mxCell id="fc3toLSza51Pf3TuY-if-17" value="Inquiry Form" style="rounded=0;whiteSpace=wrap;html=1;" vertex="1" parent="1">
          <mxGeometry x="530" y="420" width="120" height="60" as="geometry" />
        </mxCell>
        <mxCell id="fc3toLSza51Pf3TuY-if-18" value="Location" style="rounded=0;whiteSpace=wrap;html=1;" vertex="1" parent="1">
          <mxGeometry x="530" y="320" width="120" height="60" as="geometry" />
        </mxCell>
        <mxCell id="fc3toLSza51Pf3TuY-if-19" value="" style="endArrow=none;html=1;rounded=0;entryX=0.5;entryY=1;entryDx=0;entryDy=0;" edge="1" parent="1" target="fc3toLSza51Pf3TuY-if-5">
          <mxGeometry width="50" height="50" relative="1" as="geometry">
            <mxPoint x="480" y="450" as="sourcePoint" />
            <mxPoint x="450" y="350" as="targetPoint" />
            <Array as="points">
              <mxPoint x="480" y="290" />
              <mxPoint x="540" y="290" />
            </Array>
          </mxGeometry>
        </mxCell>
        <mxCell id="fc3toLSza51Pf3TuY-if-20" value="" style="endArrow=none;html=1;rounded=0;entryX=0;entryY=0.5;entryDx=0;entryDy=0;" edge="1" parent="1" target="fc3toLSza51Pf3TuY-if-18">
          <mxGeometry width="50" height="50" relative="1" as="geometry">
            <mxPoint x="480" y="350" as="sourcePoint" />
            <mxPoint x="450" y="350" as="targetPoint" />
          </mxGeometry>
        </mxCell>
        <mxCell id="fc3toLSza51Pf3TuY-if-21" value="" style="endArrow=none;html=1;rounded=0;entryX=0;entryY=0.5;entryDx=0;entryDy=0;" edge="1" parent="1" target="fc3toLSza51Pf3TuY-if-17">
          <mxGeometry width="50" height="50" relative="1" as="geometry">
            <mxPoint x="480" y="450" as="sourcePoint" />
            <mxPoint x="450" y="350" as="targetPoint" />
          </mxGeometry>
        </mxCell>
        <mxCell id="fc3toLSza51Pf3TuY-if-22" value="History" style="rounded=0;whiteSpace=wrap;html=1;" vertex="1" parent="1">
          <mxGeometry x="760" y="430" width="120" height="60" as="geometry" />
        </mxCell>
        <mxCell id="fc3toLSza51Pf3TuY-if-23" value="Mission" style="rounded=0;whiteSpace=wrap;html=1;" vertex="1" parent="1">
          <mxGeometry x="760" y="320" width="120" height="60" as="geometry" />
        </mxCell>
        <mxCell id="fc3toLSza51Pf3TuY-if-24" value="" style="endArrow=none;html=1;rounded=0;entryX=0.5;entryY=1;entryDx=0;entryDy=0;" edge="1" parent="1" target="fc3toLSza51Pf3TuY-if-6">
          <mxGeometry width="50" height="50" relative="1" as="geometry">
            <mxPoint x="700" y="460" as="sourcePoint" />
            <mxPoint x="450" y="350" as="targetPoint" />
          </mxGeometry>
        </mxCell>
        <mxCell id="fc3toLSza51Pf3TuY-if-25" value="" style="endArrow=none;html=1;rounded=0;entryX=0;entryY=0.5;entryDx=0;entryDy=0;" edge="1" parent="1" target="fc3toLSza51Pf3TuY-if-23">
          <mxGeometry width="50" height="50" relative="1" as="geometry">
            <mxPoint x="700" y="350" as="sourcePoint" />
            <mxPoint x="450" y="350" as="targetPoint" />
          </mxGeometry>
        </mxCell>
        <mxCell id="fc3toLSza51Pf3TuY-if-26" value="" style="endArrow=none;html=1;rounded=0;entryX=0;entryY=0.5;entryDx=0;entryDy=0;" edge="1" parent="1" target="fc3toLSza51Pf3TuY-if-22">
          <mxGeometry width="50" height="50" relative="1" as="geometry">
            <mxPoint x="700" y="460" as="sourcePoint" />
            <mxPoint x="450" y="350" as="targetPoint" />
          </mxGeometry>
        </mxCell>
        <mxCell id="fc3toLSza51Pf3TuY-if-27" value="" style="endArrow=none;html=1;rounded=0;" edge="1" parent="1">
          <mxGeometry width="50" height="50" relative="1" as="geometry">
            <mxPoint x="70" y="140" as="sourcePoint" />
            <mxPoint x="850" y="130" as="targetPoint" />
          </mxGeometry>
        </mxCell>
        <mxCell id="fc3toLSza51Pf3TuY-if-28" value="" style="endArrow=none;html=1;rounded=0;entryX=0.5;entryY=1;entryDx=0;entryDy=0;" edge="1" parent="1" target="fc3toLSza51Pf3TuY-if-1">
          <mxGeometry width="50" height="50" relative="1" as="geometry">
            <mxPoint x="410" y="140" as="sourcePoint" />
            <mxPoint x="450" y="50" as="targetPoint" />
          </mxGeometry>
        </mxCell>
        <mxCell id="fc3toLSza51Pf3TuY-if-29" value="" style="endArrow=none;html=1;rounded=0;" edge="1" parent="1">
          <mxGeometry width="50" height="50" relative="1" as="geometry">
            <mxPoint x="540" y="180" as="sourcePoint" />
            <mxPoint x="540" y="130" as="targetPoint" />
          </mxGeometry>
        </mxCell>
        <mxCell id="fc3toLSza51Pf3TuY-if-30" value="" style="endArrow=none;html=1;rounded=0;exitX=0.5;exitY=0;exitDx=0;exitDy=0;" edge="1" parent="1" source="fc3toLSza51Pf3TuY-if-4">
          <mxGeometry width="50" height="50" relative="1" as="geometry">
            <mxPoint x="400" y="100" as="sourcePoint" />
            <mxPoint x="380" y="130" as="targetPoint" />
          </mxGeometry>
        </mxCell>
        <mxCell id="fc3toLSza51Pf3TuY-if-31" value="" style="endArrow=none;html=1;rounded=0;exitX=0.5;exitY=0;exitDx=0;exitDy=0;" edge="1" parent="1" source="fc3toLSza51Pf3TuY-if-6">
          <mxGeometry width="50" height="50" relative="1" as="geometry">
            <mxPoint x="400" y="100" as="sourcePoint" />
            <mxPoint x="700" y="140" as="targetPoint" />
          </mxGeometry>
        </mxCell>
        <mxCell id="fc3toLSza51Pf3TuY-if-32" value="" style="endArrow=none;html=1;rounded=0;exitX=0.5;exitY=0;exitDx=0;exitDy=0;" edge="1" parent="1" source="fc3toLSza51Pf3TuY-if-2">
          <mxGeometry width="50" height="50" relative="1" as="geometry">
            <mxPoint x="220" y="170" as="sourcePoint" />
            <mxPoint x="220" y="140" as="targetPoint" />
          </mxGeometry>
        </mxCell>
        <mxCell id="fc3toLSza51Pf3TuY-if-33" value="" style="endArrow=none;html=1;rounded=0;exitX=0.5;exitY=0;exitDx=0;exitDy=0;" edge="1" parent="1" source="fc3toLSza51Pf3TuY-if-3">
          <mxGeometry width="50" height="50" relative="1" as="geometry">
            <mxPoint x="400" y="400" as="sourcePoint" />
            <mxPoint x="70" y="140" as="targetPoint" />
          </mxGeometry>
        </mxCell>
        <mxCell id="fc3toLSza51Pf3TuY-if-34" value="" style="endArrow=none;html=1;rounded=0;exitX=0.5;exitY=0;exitDx=0;exitDy=0;" edge="1" parent="1" source="fc3toLSza51Pf3TuY-if-7">
          <mxGeometry width="50" height="50" relative="1" as="geometry">
            <mxPoint x="400" y="400" as="sourcePoint" />
            <mxPoint x="845" y="130" as="targetPoint" />
          </mxGeometry>
        </mxCell>
      </root>
    </mxGraphModel>
  </diagram>
</mxfile>
